<svg id="Layer_1" data-name="Layer 1" xmlns="http://www.w3.org/2000/svg" viewBox="0 0 87.28 87.28"><defs><style>.cls-1{fill:#00a2c0;}.cls-2{fill:#fff;}</style></defs><title>CanchasClub_Iconografia</title><circle class="cls-1" cx="43.64" cy="43.64" r="43.64"/><path class="cls-2" d="M68.1,41.32A43.66,43.66,0,0,1,64,45.26,21.33,21.33,0,0,1,44.87,66.14V23.74l.17,0A15.28,15.28,0,0,1,46.3,19.5,25.71,25.71,0,1,0,68.39,44.94a25.49,25.49,0,0,0-.29-3.62M32.51,26.2c-2.62,4.35-4.3,10.41-4.51,17.27H21.42A21.31,21.31,0,0,1,32.51,26.2M21.57,47.88h6.49a35.27,35.27,0,0,0,4.45,15.8,21.35,21.35,0,0,1-10.94-15.8M40.46,65.74c-4.33-2-7.35-9.94-8-17.86h8Zm0-22.27H32.41c.33-8.39,3.46-17.15,8.05-19.33Z"/><path class="cls-2" d="M60.12,13.33c-.45,0-.9,0-1.35.07A12.69,12.69,0,0,0,47.85,27c.75,8.6,8.65,15,11.36,17a1.49,1.49,0,0,0,1.78,0c2.81-2.2,11.45-9.64,11.45-18.24A12.33,12.33,0,0,0,60.12,13.33m0,18.07a5.75,5.75,0,1,1,5.75-5.75,5.75,5.75,0,0,1-5.75,5.75"/></svg>