<?xml version="1.0" encoding="utf-8"?>
<!-- Generator: Adobe Illustrator 22.0.0, SVG Export Plug-In . SVG Version: 6.00 Build 0)  -->
<svg version="1.1" id="Layer_1" xmlns="http://www.w3.org/2000/svg" xmlns:xlink="http://www.w3.org/1999/xlink" x="0px" y="0px"
	 viewBox="0 0 87.3 87.3" style="enable-background:new 0 0 87.3 87.3;" xml:space="preserve">
<style type="text/css">
	.st0{fill:#FFFFFF;}
	.st1{fill:#00A2C0;}
</style>
<title>CanchasClub_Iconografia</title>
<circle class="st0" cx="43.6" cy="43.6" r="43.6"/>
<path class="st1" d="M60.3,41.5h-2.2c-1.2,0-2.2,1-2.2,2.2c0,1.2,1,2.2,2.2,2.2h2.2c1.2,0,2.2-1,2.2-2.2
	C62.4,42.4,61.4,41.5,60.3,41.5 M43.6,55.9c-1.2,0-2.2,1-2.2,2.2v2.2c0,1.2,1,2.2,2.2,2.2c1.2,0,2.2-1,2.2-2.2v-2.2
	C45.8,56.9,44.8,55.9,43.6,55.9L43.6,55.9 M29.2,41.5H27c-1.2,0-2.2,1-2.2,2.2c0,1.2,1,2.2,2.2,2.2h2.2c1.2,0,2.2-1,2.2-2.2
	C31.3,42.4,30.4,41.5,29.2,41.5 M43.6,24.9c-1.2,0-2.2,1-2.2,2.1v2.2c0,1.2,1,2.2,2.2,2.2c1.2,0,2.2-1,2.2-2.2c0,0,0,0,0,0V27
	C45.8,25.8,44.8,24.8,43.6,24.9"/>
<path class="st1" d="M43.6,15.5c-15.6,0-28.2,12.6-28.2,28.2c0,15.6,12.6,28.2,28.2,28.2s28.2-12.6,28.2-28.2c0,0,0,0,0,0
	C71.8,28.1,59.2,15.5,43.6,15.5 M43.6,64.6c-11.6,0-21-9.4-21-21s9.4-21,21-21s21,9.4,21,21S55.2,64.6,43.6,64.6L43.6,64.6
	 M53.1,31.6l-8.5,8.5c-0.3-0.1-0.6-0.1-0.9-0.1c-0.4,0-0.9,0.1-1.3,0.2l-6.6-6.6c-0.8-0.8-2.2-0.8-3.1,0c-0.8,0.8-0.8,2.2,0,3.1
	l6.8,6.8c-0.1,0.3-0.1,0.6-0.1,0.9c0.1,2.4,2.1,4.2,4.5,4.1c2.2-0.1,4-1.9,4.1-4.1c0-0.4-0.1-0.9-0.2-1.3l8.4-8.4
	c0.8-0.8,0.8-2.2,0-3.1C55.3,30.7,53.9,30.7,53.1,31.6L53.1,31.6"/>
</svg>
