<svg id="Layer_1" data-name="Layer 1" xmlns="http://www.w3.org/2000/svg" viewBox="0 0 87.28 87.28"><defs><style>.cls-1{fill:#00a2c0;}.cls-2{fill:#fff;}</style></defs><title>CanchasClub_Iconografia</title><circle class="cls-1" cx="43.64" cy="43.64" r="43.64"/><path class="cls-2" d="M41,58.92a1.08,1.08,0,0,0-.83-1.05,10.84,10.84,0,0,1,0-21.2A1.06,1.06,0,0,0,41,35.62V30.46a1.08,1.08,0,0,0-1.09-1.08H16.75a1.08,1.08,0,0,0-1.08,1.08v4.28a1.08,1.08,0,0,0,1.08,1.08h7.48a1.08,1.08,0,0,1,1.09,1.08V57.65a1.09,1.09,0,0,1-1.09,1.08H16.75a1.08,1.08,0,0,0-1.08,1.08v4.28a1.08,1.08,0,0,0,1.08,1.08H39.93A1.08,1.08,0,0,0,41,64.09Z"/><rect class="cls-2" x="15.67" y="38.72" width="6.75" height="17.11" rx="1.08" ry="1.08"/><path class="cls-2" d="M50.41,47.27a7.94,7.94,0,0,0-6.49-7.8V55.08A8,8,0,0,0,50.41,47.27Z"/><path class="cls-2" d="M59.62,57.65V36.9a1.08,1.08,0,0,1,1.08-1.08h7.48a1.09,1.09,0,0,0,1.09-1.08V30.46a1.08,1.08,0,0,0-1.09-1.08H45a1.08,1.08,0,0,0-1.08,1.08v5.16a1.05,1.05,0,0,0,.82,1.05,10.84,10.84,0,0,1,0,21.2,1.07,1.07,0,0,0-.82,1.05v5.17A1.08,1.08,0,0,0,45,65.17H68.18a1.08,1.08,0,0,0,1.09-1.08V59.81a1.08,1.08,0,0,0-1.09-1.08H60.7A1.08,1.08,0,0,1,59.62,57.65Z"/><rect class="cls-2" x="62.52" y="38.72" width="6.75" height="17.11" rx="1.08" ry="1.08"/><path class="cls-2" d="M34.52,47.27A8,8,0,0,0,41,55.08V39.47A8,8,0,0,0,34.52,47.27Z"/><circle class="cls-1" cx="65.89" cy="26.56" r="10.79"/><circle class="cls-2" cx="65.89" cy="26.56" r="8.56"/><path class="cls-1" d="M61.1,25.63h3.74V21.32H67v4.31h3.77v2H67v4.28H64.84V27.63H61.1Z"/></svg>