<svg id="Layer_1" data-name="Layer 1" xmlns="http://www.w3.org/2000/svg" viewBox="0 0 87.28 87.28"><defs><style>.cls-1{fill:#00a2c0;}.cls-2{fill:#fff;}</style></defs><title>CanchasClub_Iconografia</title><circle class="cls-1" cx="43.64" cy="43.64" r="43.64"/><path class="cls-2" d="M60.25,41.47H58.09a2.17,2.17,0,0,0,0,4.34h2.16a2.17,2.17,0,0,0,0-4.34M43.64,55.92a2.17,2.17,0,0,0-2.17,2.17v2.16a2.17,2.17,0,0,0,4.34,0V58.09a2.17,2.17,0,0,0-2.17-2.17M29.19,41.47H27a2.17,2.17,0,0,0,0,4.34h2.17a2.17,2.17,0,0,0,0-4.34M43.64,24.86A2.17,2.17,0,0,0,41.47,27v2.17a2.17,2.17,0,1,0,4.34,0V27a2.17,2.17,0,0,0-2.17-2.16"/><path class="cls-2" d="M43.64,15.46A28.18,28.18,0,1,0,71.81,43.64,28.18,28.18,0,0,0,43.64,15.46m0,49.13a21,21,0,1,1,21-21,21,21,0,0,1-21,21m9.45-33-8.54,8.54a3.91,3.91,0,0,0-.91-.1,4.39,4.39,0,0,0-1.31.22l-6.61-6.62a2.17,2.17,0,0,0-3.07,3.07l6.75,6.75a4.53,4.53,0,0,0-.1.91,4.34,4.34,0,0,0,8.67,0,4.27,4.27,0,0,0-.22-1.3l8.4-8.41a2.16,2.16,0,1,0-3.06-3.06"/></svg>