<?xml version="1.0" encoding="utf-8"?>
<!-- Generator: Adobe Illustrator 22.0.0, SVG Export Plug-In . SVG Version: 6.00 Build 0)  -->
<svg version="1.1" id="Layer_1" xmlns="http://www.w3.org/2000/svg" xmlns:xlink="http://www.w3.org/1999/xlink" x="0px" y="0px"
	 viewBox="0 0 87.3 87.3" style="enable-background:new 0 0 87.3 87.3;" xml:space="preserve">
<style type="text/css">
	.st0{fill:#FFFFFF;}
	.st1{fill:#00A2C0;}
</style>
<title>CanchasClub_Iconografia</title>
<circle class="st0" cx="43.6" cy="43.6" r="43.6"/>
<path class="st1" d="M41,58.9c0-0.5-0.3-0.9-0.8-1c-5.9-1.3-9.6-7-8.3-12.9c0.9-4.2,4.2-7.4,8.3-8.3c0.5-0.1,0.8-0.5,0.8-1v-5.2
	c0-0.6-0.5-1.1-1.1-1.1c0,0,0,0,0,0H16.8c-0.6,0-1.1,0.5-1.1,1.1v4.3c0,0.6,0.5,1.1,1.1,1.1h0h7.5c0.6,0,1.1,0.5,1.1,1.1
	c0,0,0,0,0,0v20.8c0,0.6-0.5,1.1-1.1,1.1h-7.5c-0.6,0-1.1,0.5-1.1,1.1l0,0v4.3c0,0.6,0.5,1.1,1.1,1.1h0h23.2c0.6,0,1.1-0.5,1.1-1.1
	V58.9z"/>
<path class="st1" d="M16.8,38.7h4.6c0.6,0,1.1,0.5,1.1,1.1v14.9c0,0.6-0.5,1.1-1.1,1.1h-4.6c-0.6,0-1.1-0.5-1.1-1.1V39.8
	C15.7,39.2,16.2,38.7,16.8,38.7z"/>
<path class="st1" d="M50.4,47.3c0-3.8-2.7-7.1-6.5-7.8v15.6C47.7,54.4,50.4,51.1,50.4,47.3z"/>
<path class="st1" d="M59.6,57.7V36.9c0-0.6,0.5-1.1,1.1-1.1h0h7.5c0.6,0,1.1-0.5,1.1-1.1v-4.3c0-0.6-0.5-1.1-1.1-1.1c0,0,0,0,0,0H45
	c-0.6,0-1.1,0.5-1.1,1.1v0v5.2c0,0.5,0.3,0.9,0.8,1c5.9,1.3,9.6,7,8.3,12.9c-0.9,4.2-4.2,7.4-8.3,8.3c-0.5,0.1-0.8,0.6-0.8,1v5.2
	c0,0.6,0.5,1.1,1.1,1.1h0h23.2c0.6,0,1.1-0.5,1.1-1.1c0,0,0,0,0,0v-4.3c0-0.6-0.5-1.1-1.1-1.1c0,0,0,0,0,0h-7.5
	C60.1,58.7,59.6,58.2,59.6,57.7z"/>
<path class="st1" d="M63.6,38.7h4.6c0.6,0,1.1,0.5,1.1,1.1v14.9c0,0.6-0.5,1.1-1.1,1.1h-4.6c-0.6,0-1.1-0.5-1.1-1.1V39.8
	C62.5,39.2,63,38.7,63.6,38.7z"/>
<path class="st1" d="M34.5,47.3c0,3.8,2.7,7.1,6.5,7.8V39.5C37.3,40.2,34.5,43.5,34.5,47.3z"/>
<circle class="st0" cx="65.9" cy="26.6" r="10.8"/>
<circle class="st1" cx="65.9" cy="26.6" r="8.6"/>
<path class="st0" d="M61.1,25.6h3.7v-4.3H67v4.3h3.8v2H67v4.3h-2.2v-4.3h-3.7V25.6z"/>
</svg>
