<?xml version="1.0" encoding="utf-8"?>
<!-- Generator: Adobe Illustrator 22.0.0, SVG Export Plug-In . SVG Version: 6.00 Build 0)  -->
<svg version="1.1" id="Layer_1" xmlns="http://www.w3.org/2000/svg" xmlns:xlink="http://www.w3.org/1999/xlink" x="0px" y="0px"
	 viewBox="0 0 87.3 87.3" style="enable-background:new 0 0 87.3 87.3;" xml:space="preserve">
<style type="text/css">
	.st0{fill:#FFFFFF;}
	.st1{fill:#00A2C0;}
</style>
<title>CanchasClub_Iconografia</title>
<circle class="st0" cx="43.6" cy="43.6" r="43.6"/>
<path class="st1" d="M43.2,14.2c-15.7,0-28.5,12.7-28.5,28.4s12.7,28.5,28.4,28.5s28.5-12.7,28.5-28.4c0,0,0,0,0,0
	C71.7,26.9,58.9,14.2,43.2,14.2z M62.6,57.7l-1.4-3.9L53,56.1l-4.7,7.2l3.3,2.5c-5.3,1.9-11.2,1.9-16.5,0l3.3-2.5l-4.7-7.2l-8.3-2.3
	l-1.4,3.9c-3.3-4.3-5.1-9.6-5.1-15c0-0.3,0-0.5,0-0.7l3.4,2.3l5.4-6.7L27,28.9l-4.1-0.1c3.2-4.7,7.9-8.1,13.4-9.7l-1.2,4l8,3l8-3
	l-1.2-4c5.5,1.6,10.2,5,13.4,9.8l-4.1,0.1L59,37.5l5.4,6.7l3.4-2.3c0,0.3,0,0.5,0,0.7C67.8,48.1,66,53.4,62.6,57.7z"/>
<polygon class="st1" points="34,38.5 37.5,49.4 48.9,49.4 52.5,38.5 43.2,31.8 "/>
</svg>
