<?xml version="1.0" encoding="utf-8"?>
<!-- Generator: Adobe Illustrator 22.0.0, SVG Export Plug-In . SVG Version: 6.00 Build 0)  -->
<svg version="1.1" id="Layer_1" xmlns="http://www.w3.org/2000/svg" xmlns:xlink="http://www.w3.org/1999/xlink" x="0px" y="0px"
	 viewBox="0 0 87.3 87.3" style="enable-background:new 0 0 87.3 87.3;" xml:space="preserve">
<style type="text/css">
	.st0{fill:#FFFFFF;}
	.st1{fill:#00A2C0;}
</style>
<title>CanchasClub_Iconografia</title>
<circle class="st0" cx="43.6" cy="43.6" r="43.6"/>
<path class="st1" d="M24,23c-2.6,0-4.6,2.1-4.6,4.6v35.9c0,2.6,2.1,4.6,4.6,4.6c0,0,0,0,0,0h40c2.6,0,4.6-2.1,4.6-4.6V27.6
	c0-2.6-2.1-4.6-4.6-4.6h-1.7v2.9c0,2-1.6,3.6-3.6,3.6s-3.6-1.6-3.6-3.6c0,0,0,0,0,0V23H32.8v2.9c0,2-1.6,3.6-3.6,3.6
	s-3.6-1.6-3.6-3.6c0,0,0,0,0,0V23H24z M27,36h34c1-0.1,1.8,0.7,1.9,1.7c0,0,0,0,0,0v23.3c-0.1,1-0.9,1.7-1.9,1.7H27
	c-1,0.1-1.8-0.7-1.9-1.7V37.7C25.2,36.7,26,35.9,27,36"/>
<path class="st1" d="M27.5,18.8v7.1c0,0.9,0.8,1.7,1.7,1.7c0.9,0,1.7-0.8,1.7-1.7v-7.1c0-0.9-0.8-1.7-1.7-1.7
	C28.3,17.1,27.5,17.9,27.5,18.8"/>
<path class="st1" d="M57.1,18.8v7.1c0.1,0.9,0.9,1.6,1.8,1.6c0.8-0.1,1.5-0.7,1.6-1.6v-7.1c-0.1-0.9-0.9-1.6-1.8-1.6
	C57.8,17.3,57.1,18,57.1,18.8"/>
<rect x="28.4" y="38.9" class="st1" width="9" height="9.2"/>
<rect x="39.7" y="38.9" class="st1" width="9" height="9.2"/>
<rect x="28.4" y="50.2" class="st1" width="9" height="9.2"/>
<rect x="39.7" y="50.2" class="st1" width="9" height="9.2"/>
<rect x="51.5" y="38.9" class="st1" width="9" height="9.2"/>
<rect x="51.5" y="50.2" class="st1" width="9" height="9.2"/>
</svg>
