<?xml version="1.0" encoding="utf-8"?>
<!-- Generator: Adobe Illustrator 22.0.0, SVG Export Plug-In . SVG Version: 6.00 Build 0)  -->
<svg version="1.1" id="Layer_1" xmlns="http://www.w3.org/2000/svg" xmlns:xlink="http://www.w3.org/1999/xlink" x="0px" y="0px"
	 viewBox="0 0 87.3 87.3" style="enable-background:new 0 0 87.3 87.3;" xml:space="preserve">
<style type="text/css">
	.st0{fill:#FFFFFF;}
	.st1{fill:#00A2C0;}
</style>
<title>CanchasClub_Iconografia</title>
<circle class="st0" cx="43.6" cy="43.6" r="43.6"/>
<path class="st1" d="M65,64.6c-1.3,1.3-3.1,1.8-3.9,0.9l-1.5-1.5l4.8-4.9l1.6,1.6C66.8,61.4,66.3,63.2,65,64.6"/>
<path class="st1" d="M63,57.5l-10-10c5.8-8.7,3.4-20.5-5.4-26.2s-20.5-3.4-26.2,5.4S18,47.1,26.8,52.9c3.1,2,6.7,3.1,10.5,3.1
	c3.9,0,7.8-1.3,11-3.5l10,10L63,57.5z M50.5,37.3c0,7.4-5.9,13.3-13.3,13.3s-13.3-5.9-13.3-13.3C23.9,30,29.8,24,37.2,24
	c0,0,0,0,0,0C44.6,24,50.5,29.9,50.5,37.3"/>
<path class="st1" d="M37.3,49.6c-6.8,0-12.3-5.5-12.3-12.3s5.5-12.3,12.3-12.3c6.8,0,12.3,5.5,12.3,12.3c0,0,0,0,0,0
	C49.6,44.1,44.1,49.6,37.3,49.6 M37.3,25.6c-6.4,0-11.6,5.2-11.6,11.7s5.2,11.6,11.7,11.6c6.4,0,11.6-5.2,11.6-11.6
	C49,30.8,43.8,25.6,37.3,25.6C37.3,25.6,37.3,25.6,37.3,25.6"/>
</svg>
