<svg id="Layer_1" data-name="Layer 1" xmlns="http://www.w3.org/2000/svg" viewBox="0 0 87.28 87.28"><defs><style>.cls-1{fill:#00a2c0;}.cls-2{fill:#fff;}</style></defs><title>CanchasClub_Iconografia</title><circle class="cls-1" cx="43.64" cy="43.64" r="43.64"/><path class="cls-2" d="M27.94,43.45A16,16,0,1,0,44,27.41a16.07,16.07,0,0,0-16,16m27.23-1A11.22,11.22,0,1,1,43,32.28a11.21,11.21,0,0,1,12.16,10.2"/><path class="cls-2" d="M66,52.32l2.65-.1a1.64,1.64,0,0,0,1.42-1.13l.87-4.2a1.64,1.64,0,0,0-.84-1.6L67.7,44.13a2,2,0,0,1-1-1.61s0-.31-.07-1l0-.25c0-.27.37-.76.89-1.09l2.25-1.42A1.64,1.64,0,0,0,70.38,37L69.05,33a1.62,1.62,0,0,0-1.53-1l-2.66.2a1.93,1.93,0,0,1-1.63-.75c-.28-.46-.85-2.06-.56-2.6l1.24-2.35a1.65,1.65,0,0,0-.27-1.79l-3.2-2.86a1.62,1.62,0,0,0-1.81-.07l-2.2,1.49a1.9,1.9,0,0,1-1.78.17c-.47-.26-1.77-1.36-1.79-2l-.11-2.65a1.63,1.63,0,0,0-1.12-1.42l-4.2-.87a1.64,1.64,0,0,0-1.6.84l-1.16,2.4a2,2,0,0,1-1.62,1s-.3,0-1,.07l-.25,0c-.27,0-.76-.36-1.09-.89l-1.42-2.25a1.64,1.64,0,0,0-1.69-.66l-4.08,1.33a1.65,1.65,0,0,0-1,1.53l.19,2.66A1.88,1.88,0,0,1,32,24.21c-.45.28-2,.85-2.59.57L27,23.54a1.62,1.62,0,0,0-1.79.27L22.37,27a1.63,1.63,0,0,0-.06,1.81L23.8,31A1.9,1.9,0,0,1,24,32.8c-.26.46-1.36,1.76-2,1.78l-2.66.11a1.62,1.62,0,0,0-1.41,1.13L17,40a1.66,1.66,0,0,0,.85,1.6l2.4,1.16a2,2,0,0,1,1,1.61s0,.31.07,1l0,.25c0,.28-.37.77-.89,1.1l-2.25,1.42a1.65,1.65,0,0,0-.67,1.68L18.93,54a1.61,1.61,0,0,0,1.53,1l2.66-.19a1.87,1.87,0,0,1,1.62.75c.28.45.86,2.05.57,2.6l-1.24,2.35a1.66,1.66,0,0,0,.27,1.79l3.2,2.86a1.65,1.65,0,0,0,1.81.07l2.2-1.5a1.9,1.9,0,0,1,1.78-.16c.47.26,1.76,1.36,1.79,2l.1,2.66a1.67,1.67,0,0,0,1.13,1.42l4.2.87a1.63,1.63,0,0,0,1.6-.85l1.16-2.39a2,2,0,0,1,1.62-1s.31,0,1-.06l.25,0c.27,0,.76.36,1.09.88l1.42,2.26a1.64,1.64,0,0,0,1.69.66l4.07-1.33a1.64,1.64,0,0,0,1-1.53l-.19-2.66A1.88,1.88,0,0,1,56,62.7c.45-.28,2.05-.85,2.59-.57L61,63.37a1.62,1.62,0,0,0,1.79-.27l2.86-3.2a1.63,1.63,0,0,0,.06-1.81l-1.49-2.2A1.87,1.87,0,0,1,64,54.11c.25-.46,1.35-1.76,2-1.79M44,61.74A18.29,18.29,0,1,1,62.27,43.45,18.31,18.31,0,0,1,44,61.74"/></svg>