<?xml version="1.0" encoding="utf-8"?>
<!-- Generator: Adobe Illustrator 22.0.0, SVG Export Plug-In . SVG Version: 6.00 Build 0)  -->
<svg version="1.1" id="Layer_1" xmlns="http://www.w3.org/2000/svg" xmlns:xlink="http://www.w3.org/1999/xlink" x="0px" y="0px"
	 viewBox="0 0 87.3 87.3" style="enable-background:new 0 0 87.3 87.3;" xml:space="preserve">
<style type="text/css">
	.st0{fill:#FFFFFF;}
	.st1{fill:#00A2C0;}
</style>
<title>CanchasClub_Iconografia</title>
<circle class="st0" cx="43.6" cy="43.6" r="43.6"/>
<path class="st1" d="M27.9,43.5c0,8.8,7.2,16,16,16c8.8,0,16-7.2,16-16c0-8.8-7.1-15.9-15.9-16C35.2,27.4,28,34.6,27.9,43.5
	 M55.2,42.4c0.6,6.2-4,11.6-10.1,12.2c-6.2,0.6-11.6-4-12.2-10.1c-0.6-6.2,4-11.6,10.1-12.2C49.2,31.7,54.6,36.3,55.2,42.4
	C55.2,42.5,55.2,42.5,55.2,42.4"/>
<path class="st1" d="M66,52.3l2.7-0.1c0.7-0.1,1.2-0.5,1.4-1.1l0.9-4.2c0.1-0.7-0.3-1.3-0.8-1.6l-2.4-1.2c-0.6-0.3-1-0.9-1-1.6
	c0,0,0-0.3-0.1-1v-0.3c0-0.3,0.4-0.8,0.9-1.1l2.3-1.4c0.5-0.4,0.8-1.1,0.6-1.8l-1.3-4c-0.3-0.6-0.9-1-1.5-1l-2.7,0.2
	c-0.6,0-1.2-0.2-1.6-0.7c-0.3-0.5-0.8-2.1-0.6-2.6l1.2-2.4c0.3-0.6,0.2-1.3-0.3-1.8l-3.2-2.9c-0.5-0.4-1.2-0.4-1.8-0.1l-2.2,1.5
	c-0.5,0.3-1.2,0.4-1.8,0.2c-0.5-0.3-1.8-1.4-1.8-2l-0.1-2.6c-0.1-0.7-0.5-1.2-1.1-1.4l-4.2-0.9c-0.7-0.1-1.3,0.3-1.6,0.8l-1.2,2.4
	c-0.3,0.6-0.9,1-1.6,1c0,0-0.3,0-1,0.1h-0.3c-0.3,0-0.8-0.4-1.1-0.9l-1.4-2.3c-0.4-0.5-1-0.8-1.7-0.7l-4.1,1.3c-0.6,0.3-1,0.9-1,1.5
	l0.2,2.7c0.1,0.6-0.2,1.3-0.7,1.7c-0.5,0.3-2,0.9-2.6,0.6L27,23.5c-0.6-0.3-1.3-0.2-1.8,0.3L22.4,27c-0.4,0.5-0.4,1.3-0.1,1.8
	l1.5,2.2c0.4,0.5,0.4,1.2,0.2,1.8c-0.3,0.5-1.4,1.8-2,1.8l-2.7,0.1c-0.7,0.1-1.2,0.5-1.4,1.1L17,40c-0.1,0.7,0.3,1.3,0.9,1.6
	l2.4,1.2c0.6,0.3,1,0.9,1,1.6c0,0,0,0.3,0.1,1v0.3c0,0.3-0.4,0.8-0.9,1.1l-2.3,1.4c-0.5,0.4-0.8,1-0.7,1.7l1.4,4.2
	c0.3,0.6,0.9,1,1.5,1l2.7-0.2c0.6,0,1.2,0.2,1.6,0.8c0.3,0.5,0.9,2,0.6,2.6l-1.2,2.3c-0.3,0.6-0.2,1.3,0.3,1.8l3.2,2.9
	c0.5,0.4,1.2,0.4,1.8,0.1l2.2-1.5c0.5-0.3,1.2-0.4,1.8-0.2c0.5,0.3,1.8,1.4,1.8,2l0.1,2.7c0.1,0.7,0.5,1.2,1.1,1.4l4.2,0.9
	c0.7,0.1,1.3-0.3,1.6-0.8l1.2-2.4c0.3-0.6,0.9-1,1.6-1c0,0,0.3,0,1-0.1h0.3c0.3,0,0.8,0.4,1.1,0.9l1.4,2.3c0.4,0.5,1,0.8,1.7,0.7
	l4.1-1.3c0.6-0.3,1-0.9,1-1.5l-0.2-2.7c-0.1-0.7,0.2-1.4,0.7-1.8c0.5-0.3,2-0.8,2.6-0.6l2.4,1.2c0.6,0.3,1.3,0.2,1.8-0.3l2.9-3.2
	c0.4-0.5,0.4-1.3,0.1-1.8l-1.5-2.2c-0.4-0.5-0.5-1.2-0.2-1.8C64.3,53.7,65.3,52.4,66,52.3 M44,61.7c-10.1,0-18.3-8.2-18.3-18.3
	c0-10.1,8.2-18.3,18.3-18.3c10.1,0,18.3,8.2,18.3,18.3c0,0,0,0,0,0C62.3,53.5,54.1,61.7,44,61.7"/>
</svg>
