<svg id="Layer_1" data-name="Layer 1" xmlns="http://www.w3.org/2000/svg" viewBox="0 0 87.28 87.28"><defs><style>.cls-1{fill:#00a2c0;}.cls-2{fill:#fff;}</style></defs><title>CanchasClub_Iconografia</title><circle class="cls-1" cx="43.64" cy="43.64" r="43.64"/><path class="cls-2" d="M61.28,25a8.81,8.81,0,0,0-3.46-7.11.48.48,0,0,0-.77.38v6.14l-4.59,2.81-4.58-2.81V18.22a.48.48,0,0,0-.77-.38A8.81,8.81,0,0,0,49,32.94V57.86A8.8,8.8,0,0,0,47.11,73a.48.48,0,0,0,.77-.38V66.43l4.58-2.81,4.59,2.81v6.14a.48.48,0,0,0,.77.38A8.82,8.82,0,0,0,56,57.85V32.93a8.8,8.8,0,0,0,5.31-8"/><path class="cls-2" d="M38.3,43.32H35.55V26.92L36.75,25,35.3,17.74H32.38L30.92,25l1.21,1.91v16.4H29.37a.73.73,0,0,0-.68.77v1.32a.74.74,0,0,0,.68.78h.15a6.2,6.2,0,0,0-.83,3.12V67.76c0,3.12,2.22,5.66,5,5.66H34c2.74,0,5-2.54,5-5.66V49.31a6.1,6.1,0,0,0-.83-3.12h.15a.73.73,0,0,0,.68-.78V44.09a.72.72,0,0,0-.68-.77M31.12,69.6H30V49.32h1.11Zm3.21,0H33.22V49.32h1.11Zm3.21,0H36.43V49.32h1.11Z"/></svg>