<svg id="Layer_1" data-name="Layer 1" xmlns="http://www.w3.org/2000/svg" viewBox="0 0 87.28 87.28"><defs><style>.cls-1{fill:#00a2c0;}.cls-2{fill:#fff;}</style></defs><title>CanchasClub_Iconografia</title><circle class="cls-1" cx="43.64" cy="43.64" r="43.64"/><path class="cls-2" d="M66.7,19.58H63.86A2.86,2.86,0,0,0,61,22.43v37a2.85,2.85,0,0,0,2.85,2.84H66.7a2.84,2.84,0,0,0,2.84-2.84v-37a2.85,2.85,0,0,0-2.84-2.85"/><path class="cls-2" d="M56.56,23.68l-32,9a.71.71,0,0,0-.52.68v17h0V56a4.73,4.73,0,0,0,4,4.67l10.43,1.74a5.12,5.12,0,0,0,.78.06A4.74,4.74,0,0,0,44,57.71v-2l12.6,3.42a.71.71,0,0,0,.9-.68V24.36a.71.71,0,0,0-.9-.68m-16.87,34a.47.47,0,0,1-.17.37.46.46,0,0,1-.38.1h0L28.71,56.44a.45.45,0,0,1-.39-.46v-4.5l11.37,3.09ZM19.79,33.8H17.66a2.84,2.84,0,0,0-2.84,2.84v10a2.85,2.85,0,0,0,2.84,2.85h2.13a.71.71,0,0,0,.71-.71V34.51a.71.71,0,0,0-.71-.71"/></svg>