<svg id="Layer_1" data-name="Layer 1" xmlns="http://www.w3.org/2000/svg" viewBox="0 0 87.28 87.28"><defs><style>.cls-1{fill:#00a2c0;}.cls-2{fill:#fff;}</style></defs><title>CanchasClub_Iconografia</title><circle class="cls-1" cx="43.64" cy="43.64" r="43.64"/><path class="cls-2" d="M43.23,14.2A28.45,28.45,0,1,0,71.67,42.65,28.47,28.47,0,0,0,43.23,14.2ZM62.64,57.65l-1.37-3.86L53,56.06l-4.72,7.19,3.25,2.51a24.18,24.18,0,0,1-16.55,0l3.25-2.51-4.72-7.19-8.3-2.27L23.8,57.65a24.49,24.49,0,0,1-5.15-15c0-.25,0-.49,0-.73l3.39,2.32,5.38-6.72-.41-8.59-4.12-.12a24.61,24.61,0,0,1,13.41-9.74l-1.16,4,8,3,8-3-1.16-4a24.58,24.58,0,0,1,13.41,9.75l-4.13.12L59,37.53l5.37,6.71,3.39-2.32c0,.25,0,.48,0,.73A24.36,24.36,0,0,1,62.64,57.65Z"/><polygon class="cls-2" points="33.99 38.52 37.52 49.38 48.93 49.38 52.46 38.52 43.23 31.81 33.99 38.52"/></svg>