<svg id="Layer_1" data-name="Layer 1" xmlns="http://www.w3.org/2000/svg" viewBox="0 0 87.28 87.28"><defs><style>.cls-1{fill:#00a2c0;}.cls-2{fill:#fff;}</style></defs><title>CanchasClub_Iconografia</title><circle class="cls-1" cx="43.64" cy="43.64" r="43.64"/><path class="cls-2" d="M34.19,59.53V28.88a.82.82,0,0,0-.81-.82H20.92a.82.82,0,0,0-.82.82V59.53a.82.82,0,0,0,.82.81H33.38a.81.81,0,0,0,.81-.81"/><path class="cls-2" d="M50.72,59.53V39.89a.82.82,0,0,0-.82-.81H37.44a.81.81,0,0,0-.81.81V59.53a.81.81,0,0,0,.81.81H49.9a.82.82,0,0,0,.82-.81"/><path class="cls-2" d="M67.24,59.53V17.86a.81.81,0,0,0-.81-.81H54a.81.81,0,0,0-.81.81V59.53a.81.81,0,0,0,.81.81H66.43a.81.81,0,0,0,.81-.81"/><path class="cls-2" d="M70.31,64.27v-.94a.81.81,0,0,0-.81-.81H18.1a.81.81,0,0,0-.81.81v.94a.81.81,0,0,0,.81.81H69.5a.81.81,0,0,0,.81-.81"/></svg>