<svg id="Layer_1" data-name="Layer 1" xmlns="http://www.w3.org/2000/svg" viewBox="0 0 87.28 87.28"><defs><style>.cls-1{fill:#00a2c0;}.cls-2{fill:#fff;}</style></defs><title>CanchasClub_Iconografia</title><circle class="cls-1" cx="43.64" cy="43.64" r="43.64"/><path class="cls-2" d="M66.15,27.33l-44.43-.15A3.86,3.86,0,0,0,17.85,31l-.09,27A3.86,3.86,0,0,0,21.61,62L66,62.09a3.86,3.86,0,0,0,3.88-3.84l.09-27a3.86,3.86,0,0,0-3.85-3.87M24.84,48.4l14.48,0v1.09l-14.48,0Zm0,5.16V52.47l28.95,0v1.09Zm28.74-7.62V32.42l10.8,0V45.93Z"/></svg>