<svg id="Layer_1" data-name="Layer 1" xmlns="http://www.w3.org/2000/svg" viewBox="0 0 87.28 87.28"><defs><style>.cls-1{fill:#00a2c0;}.cls-2{fill:#fff;}</style></defs><title>CanchasClub_Iconografia</title><circle class="cls-1" cx="43.64" cy="43.64" r="43.64"/><path class="cls-2" d="M65,64.55c-1.34,1.34-3.1,1.76-3.93.94l-1.55-1.55L64.33,59l1.6,1.6c.83.83.41,2.59-.93,3.93"/><path class="cls-2" d="M63,57.49l-10-10A18.94,18.94,0,1,0,37.22,56a19.31,19.31,0,0,0,11-3.53l10,9.95ZM50.54,37.29A13.32,13.32,0,1,1,37.22,24,13.32,13.32,0,0,1,50.54,37.29"/><path class="cls-2" d="M37.32,49.59A12.33,12.33,0,1,1,49.64,37.26,12.34,12.34,0,0,1,37.32,49.59m0-24A11.65,11.65,0,1,0,49,37.26,11.65,11.65,0,0,0,37.32,25.62"/></svg>