<svg id="Layer_1" data-name="Layer 1" xmlns="http://www.w3.org/2000/svg" viewBox="0 0 87.28 87.28"><defs><style>.cls-1{fill:#00a2c0;}.cls-2{fill:#fff;}</style></defs><title>CanchasClub_Iconografia</title><circle class="cls-1" cx="43.64" cy="43.64" r="43.64"/><path class="cls-2" d="M61.71,26.67a24.69,24.69,0,1,0-18,41.47,2.79,2.79,0,0,0,2.5-1.51,2.93,2.93,0,0,0-2.53-4.3,18,18,0,0,1-8.21-1.71C27.81,56.56,24,49.15,24.85,41.29A19.05,19.05,0,0,1,41.94,24.65a18.83,18.83,0,0,1,15.51,6A13.78,13.78,0,0,1,61,40.06v5.6a2.89,2.89,0,0,1-1.88,2.78,2.81,2.81,0,0,1-3.72-2.65V34.88a3,3,0,0,0-2.19-3,2.88,2.88,0,0,0-3.16,1.27,12.55,12.55,0,1,0,2.07,18.69,8.58,8.58,0,0,0,7.49,2.4c4-.63,7.2-4.76,7.2-8.8V40.06a19.57,19.57,0,0,0-5.13-13.39M44.71,50a6.76,6.76,0,0,1-8.33-8.33A6.67,6.67,0,0,1,41.05,37a6.77,6.77,0,0,1,8.33,8.33A6.65,6.65,0,0,1,44.71,50"/></svg>