<svg id="Layer_1" data-name="Layer 1" xmlns="http://www.w3.org/2000/svg" viewBox="0 0 87.28 87.28"><defs><style>.cls-1{fill:#00a2c0;}.cls-2{fill:#fff;}</style></defs><title>CanchasClub_Iconografia</title><circle class="cls-1" cx="43.64" cy="43.64" r="43.64"/><path class="cls-2" d="M24,23a4.64,4.64,0,0,0-4.64,4.64v35.9A4.63,4.63,0,0,0,24,68.17H64a4.64,4.64,0,0,0,4.64-4.64V27.63A4.64,4.64,0,0,0,64,23H62.33v2.94a3.56,3.56,0,1,1-7.12,0V23H32.77v2.94a3.56,3.56,0,1,1-7.12,0V23ZM27,36H61a1.77,1.77,0,0,1,1.86,1.68V60.93A1.77,1.77,0,0,1,61,62.6H27a1.77,1.77,0,0,1-1.86-1.67V37.67A1.77,1.77,0,0,1,27,36"/><path class="cls-2" d="M27.51,18.81v7.12a1.7,1.7,0,0,0,3.4,0V18.81a1.7,1.7,0,0,0-3.4,0"/><path class="cls-2" d="M57.06,18.81v7.12a1.71,1.71,0,0,0,3.41,0V18.81a1.71,1.71,0,0,0-3.41,0"/><rect class="cls-2" x="28.37" y="38.89" width="9.01" height="9.22"/><rect class="cls-2" x="39.7" y="38.89" width="9.01" height="9.22"/><rect class="cls-2" x="28.37" y="50.22" width="9.01" height="9.22"/><rect class="cls-2" x="39.7" y="50.22" width="9.01" height="9.22"/><rect class="cls-2" x="51.46" y="38.89" width="9" height="9.22"/><rect class="cls-2" x="51.46" y="50.22" width="9" height="9.22"/></svg>